<svg preserveAspectRatio="none" width="100%" height="100%" overflow="visible" style="display: block;" viewBox="0 0 378.939 30.5686" fill="none" xmlns="http://www.w3.org/2000/svg">
<g id="Group">
<path id="Vector" d="M23.1516 9.64179C21.507 6.98715 18.9423 5.3553 15.3655 5.3553C9.60345 5.3553 5.68161 9.86014 5.68161 15.2843C5.68161 20.7085 9.59195 25.2134 15.3655 25.2134C18.9423 25.2134 21.507 23.57 23.1516 20.9269L27.9936 23.8343C25.3023 28.0404 20.9204 30.5686 15.3655 30.5686C6.64769 30.5686 0.000107836 24.0067 0.000107836 15.2958C0.000107836 6.58494 6.64769 0.0230441 15.3655 0.0230441C20.9204 0.0230441 25.3023 2.55127 27.9936 6.75732L23.1516 9.66478V9.64179Z" fill="#8752F3"/>
<path id="Vector_2" d="M31.996 15.2728C31.996 6.5619 38.6436 0 47.3154 0C55.9871 0 62.6807 6.5619 62.6807 15.2728C62.6807 23.9837 56.0331 30.5456 47.3154 30.5456C38.5976 30.5456 31.996 23.9837 31.996 15.2728ZM56.9992 15.2728C56.9992 9.84859 53.0889 5.34375 47.3154 5.34375C41.5419 5.34375 37.6775 9.84859 37.6775 15.2728C37.6775 20.697 41.5879 25.2018 47.3154 25.2018C53.0429 25.2018 56.9992 20.697 56.9992 15.2728Z" fill="#8752F3"/>
<path id="Vector_3" d="M68.569 29.994V0.55163H74.2505L83.9343 16.1117H83.9803L93.7102 0.55163H99.3457V29.994H93.6642V10.7335L84.4864 25.5006H83.4398L74.262 10.7335V29.994H68.5805H68.569Z" fill="#8752F3"/>
<path id="Vector_4" d="M107.052 29.994V0.55163H123.095V5.76897H112.699V12.4573H122.555V17.7206H112.699V24.7422H123.302V30.0055H107.052V29.994Z" fill="#8752F3"/>
<path id="Vector_5" d="M129.239 29.994V0.55163H139.129C143.845 0.55163 148.56 2.95344 148.56 8.63046C148.56 11.9172 146.755 13.8018 144.811 14.8591C146.962 15.8704 149.607 17.893 149.607 21.9726C149.607 27.776 145.19 30.0055 139.796 30.0055H129.227L129.239 29.994ZM134.92 12.7101H138.75C141.28 12.7101 142.879 11.4115 142.879 9.05567C142.879 6.69982 141.326 5.4357 138.75 5.4357H134.92V12.7101ZM134.92 25.1214H139.509C142.419 25.1214 143.925 23.7768 143.925 21.467C143.925 19.1571 142.154 17.5942 139.29 17.5942H134.909V25.1214H134.92Z" fill="#8752F3"/>
<path id="Vector_6" d="M152.31 29.994L164.984 0.55163H170.838L183.547 29.994H177.279L174.622 23.8918H161.235L158.578 29.994H152.31ZM163.132 18.8468H172.69L167.974 7.65365H167.894L163.132 18.8468Z" fill="#8752F3"/>
<path id="Vector_7" d="M208.975 9.64173C207.331 6.98709 204.766 5.35524 201.189 5.35524C195.427 5.35524 191.505 9.86008 191.505 15.2843C191.505 20.7085 195.416 25.2133 201.189 25.2133C204.766 25.2133 207.331 23.57 208.975 20.9268L213.817 23.8343C211.126 28.0403 206.744 30.5686 201.189 30.5686C192.471 30.5686 185.824 24.0067 185.824 15.2958C185.824 6.58488 192.471 0.022982 201.189 0.022982C206.744 0.022982 211.126 2.55121 213.817 6.75726L208.975 9.66472V9.64173Z" fill="#8752F3"/>
<path id="Vector_8" d="M225.26 16.1232V30.0055H219.579V0.563121H225.26V13.3536L235.657 0.563121H242.397L230.942 14.7327L242.937 30.0055H236.244L225.26 16.1232Z" fill="#8752F3"/>
<path id="Vector_9" d="M267.908 12.2044C272.37 13.3766 277.672 15.0659 277.672 21.5014C277.672 26.8452 273.417 30.5456 267.068 30.5456C262.479 30.5456 259.109 28.8218 256.246 25.5351L260.248 21.8806C262.019 23.8573 263.951 25.2823 267.068 25.2823C270.392 25.2823 272.037 23.7653 272.037 21.6278C272.037 19.226 269.046 18.3871 265.723 17.4677C261.387 16.2956 256.97 14.273 256.97 8.42359C256.97 3.53952 260.973 0.011491 266.781 0.011491C271.163 0.011491 274.026 1.56291 276.717 4.21754L272.807 7.79153C271.255 6.32056 269.357 5.22883 266.746 5.22883C264.135 5.22883 262.663 6.40101 262.663 8.29718C262.663 10.4806 265.021 11.4115 267.931 12.2044H267.908Z" fill="#8752F3"/>
<path id="Vector_10" d="M281.755 15.2728C281.755 6.5619 288.403 0 297.074 0C305.746 0 312.44 6.5619 312.44 15.2728C312.44 23.9837 305.792 30.5456 297.074 30.5456C288.357 30.5456 281.755 23.9837 281.755 15.2728ZM306.758 15.2728C306.758 9.84859 302.848 5.34375 297.074 5.34375C291.301 5.34375 287.436 9.84859 287.436 15.2728C287.436 20.697 291.347 25.2018 297.074 25.2018C302.802 25.2018 306.758 20.697 306.758 15.2728Z" fill="#8752F3"/>
<path id="Vector_11" d="M316.615 15.2728C316.615 6.5619 323.262 0 331.934 0C340.606 0 347.299 6.5619 347.299 15.2728C347.299 23.9837 340.652 30.5456 331.934 30.5456C323.216 30.5456 316.615 23.9837 316.615 15.2728ZM341.618 15.2728C341.618 9.84859 337.707 5.34375 331.934 5.34375C326.16 5.34375 322.296 9.84859 322.296 15.2728C322.296 20.697 326.206 25.2018 331.934 25.2018C337.661 25.2018 341.618 20.697 341.618 15.2728Z" fill="#8752F3"/>
<path id="Vector_12" d="M353.234 29.994V0.55163H358.409L373.223 19.9845H373.303V0.55163H378.939V29.994H373.717L358.938 10.5151H358.858V29.994H353.222H353.234Z" fill="#8752F3"/>
</g>
</svg>
