<svg preserveAspectRatio="none" width="100%" height="100%" overflow="visible" style="display: block;" viewBox="0 0 64 64" fill="none" xmlns="http://www.w3.org/2000/svg">
<g id="Empty">
<path id="Vector" d="M45.9962 24.1347C46.0616 24.1478 46.1401 24.1609 46.2317 24.1609C46.4671 24.1609 46.7811 24.0693 47.0819 23.69C47.1604 23.5854 47.2389 23.4676 47.2912 23.363C47.5528 23.4022 47.8014 23.363 47.9845 23.206C48.1676 23.049 48.2592 22.8136 48.2592 22.5389C48.9132 22.3165 49.2795 21.911 49.2403 21.3878C49.1748 20.6029 48.3638 20.0405 47.4351 20.1189C47.0296 20.1582 46.6895 20.2498 46.4279 20.3936C46.1924 20.1844 45.8523 20.1713 45.6169 20.3806C45.3814 20.5768 45.3422 20.93 45.4992 21.1916C45.316 21.427 45.159 21.741 45.0675 22.1334C44.9628 22.552 44.989 22.9967 45.146 23.363C45.316 23.7554 45.63 24.0301 46.0093 24.1217L45.9962 24.1347ZM47.4874 20.7991C48.0368 20.7468 48.5339 21.0477 48.5731 21.4532C48.5862 21.6363 48.39 21.7802 48.1153 21.8849C48.0368 21.7017 47.9191 21.5186 47.7752 21.3485C47.5921 21.1393 47.3828 20.9692 47.1735 20.8515C47.2781 20.8253 47.3828 20.8122 47.4874 20.7991ZM45.6954 22.3034C45.7215 22.1988 45.7608 22.0941 45.7869 22.0026C45.8654 22.238 45.9962 22.4604 46.1793 22.6828C46.3232 22.8528 46.4933 22.9967 46.6633 23.1144C46.6241 23.1798 46.5849 23.2322 46.5456 23.2845C46.3494 23.533 46.2055 23.4938 46.1532 23.4807C45.9701 23.4284 45.8262 23.2976 45.7346 23.0883C45.63 22.8528 45.6169 22.5781 45.6823 22.3034H45.6954Z" fill="var(--fill-0, #7A7A83)"/>
<path id="Vector_2" d="M16.2113 6.17487C17.2708 6.17487 18.1603 5.37694 18.2781 4.33048C18.4089 3.19245 17.5848 2.15907 16.4468 2.02826C16.3683 2.02826 16.2898 2.01518 16.2113 2.01518C15.1518 2.01518 14.2623 2.81311 14.1445 3.85957C14.0791 4.42204 14.2361 4.95836 14.5893 5.39002C14.9294 5.82169 15.4265 6.09638 15.9889 6.16179C16.0674 6.16179 16.1459 6.17487 16.2244 6.17487H16.2113Z" fill="var(--fill-0, #7A7A83)"/>
<path id="Vector_3" d="M37.0228 24.7365C37.1798 24.7365 37.3498 24.7234 37.5068 24.6842C38.9849 24.3702 40.0052 22.6697 39.7828 20.9038C39.5866 19.2949 38.4617 18.1307 37.1013 18.1307C35.7409 18.1307 36.7743 18.1438 36.6173 18.183C35.1392 18.4969 34.1189 20.1974 34.3412 21.9634C34.5374 23.5723 35.6624 24.7365 37.0228 24.7365ZM36.7743 18.9025C36.8789 18.8763 36.9966 18.8632 37.1013 18.8632C38.03 18.8632 38.8149 19.6611 39.0242 20.7861C38.7364 20.3675 38.3178 20.0928 37.8469 20.0536C37.8076 20.0536 37.7815 20.0536 37.7422 20.0536C37.6245 20.0536 37.5068 20.0666 37.3891 20.0928C37.2452 20.132 37.1013 20.1844 36.9705 20.2629C36.3949 20.603 36.0156 21.3093 36.0025 22.0811C36.0025 22.6959 36.2118 23.2714 36.5911 23.6639C36.735 23.8077 36.892 23.9255 37.062 24.004C37.049 24.004 37.0359 24.004 37.0228 24.004C36.0417 24.004 35.2176 23.1145 35.0607 21.8718C34.8906 20.4591 35.6493 19.1248 36.7612 18.8894L36.7743 18.9025Z" fill="var(--fill-0, #7A7A83)"/>
<path id="Vector_4" d="M29.3182 25.1682C29.4752 25.1682 29.6452 25.1551 29.8022 25.1159C31.2803 24.8019 32.3006 23.1014 32.0783 21.3355C31.8821 19.7266 30.7571 18.5624 29.3967 18.5624C28.0363 18.5624 29.0697 18.5755 28.9127 18.6147C27.4346 18.9287 26.4143 20.6292 26.6367 22.3951C26.8329 24.004 27.9578 25.1682 29.3182 25.1682ZM29.0697 19.3342C29.1743 19.308 29.2921 19.2949 29.3967 19.2949C30.3254 19.2949 31.1103 20.0928 31.3196 21.2178C31.0318 20.7992 30.6132 20.5245 30.1423 20.4853C30.1031 20.4853 30.0769 20.4853 30.0377 20.4853C29.9199 20.4853 29.8022 20.4983 29.6845 20.5245C29.5406 20.5637 29.3967 20.6161 29.2659 20.6946C28.6903 21.0347 28.311 21.741 28.2979 22.5128C28.2979 23.1276 28.5072 23.7031 28.8866 24.0956C29.0304 24.2394 29.1874 24.3572 29.3575 24.4357C29.3444 24.4357 29.3313 24.4357 29.3182 24.4357C28.3372 24.4357 27.5131 23.5462 27.3561 22.3035C27.1861 20.8908 27.9447 19.5565 29.0566 19.3211L29.0697 19.3342Z" fill="var(--fill-0, #7A7A83)"/>
<path id="Vector_5" d="M32.0652 27.0257C32.1306 27.078 32.2091 27.1042 32.2876 27.1042C32.4053 27.1042 32.51 27.0518 32.5754 26.9603C32.8108 26.6594 33.3079 26.1623 33.975 26.1623C34.6421 26.1623 34.2889 26.1885 34.459 26.2408C34.6944 26.3193 34.786 26.4501 34.7468 26.6463C34.7075 26.8425 34.5244 27.0518 34.2497 27.1172C34.2235 27.1172 34.1843 27.1172 34.1451 27.1172C34.0797 27.1172 34.0404 27.1172 34.0273 27.1172H33.9488H33.9358C33.8573 27.1434 33.7788 27.1957 33.7396 27.2611L33.6872 27.3134V27.3396H33.6741V27.4704C33.6741 27.4704 33.6741 27.4966 33.6741 27.5097V27.5227V27.5751C33.6872 27.5751 33.6872 27.5751 33.6872 27.5751V27.6012C33.6872 27.6274 33.6872 27.6274 33.6872 27.6405V27.6666C33.7003 27.6666 33.7134 27.6797 33.7134 27.6797L33.7657 27.732L33.7788 27.7451H33.805C33.805 27.7582 33.805 27.7582 33.805 27.7582C33.805 27.7582 33.818 27.7582 33.8311 27.7713H33.8573V27.7844L33.8965 27.8105H33.9358H34.0404C34.0666 27.8105 34.1058 27.8105 34.1451 27.8105C34.3936 27.8367 34.6029 27.9152 34.6944 28.0067C34.7206 28.0329 34.7337 28.059 34.7337 28.1245C34.7206 28.2945 34.5898 28.4515 34.3936 28.5692C34.302 28.6215 34.0927 28.7131 33.818 28.7131C33.5957 28.7131 33.3602 28.6608 33.1509 28.543C33.0986 28.5169 33.0332 28.5038 32.9678 28.5038C32.8239 28.5038 32.7062 28.5823 32.6408 28.7C32.5884 28.7916 32.5884 28.8831 32.6146 28.9878C32.6408 29.0793 32.7062 29.1578 32.7977 29.2102C33.1117 29.3802 33.4649 29.4718 33.818 29.4718C34.1712 29.4718 34.459 29.3933 34.7468 29.2494C35.1784 29.0139 35.4401 28.6477 35.4793 28.2029C35.4793 28.1637 35.4793 28.1375 35.4793 28.0983C35.4793 27.889 35.4008 27.6928 35.2569 27.5358L35.1 27.3658C35.2569 27.1957 35.3616 26.9864 35.4139 26.751C35.4139 26.6986 35.427 26.6332 35.4401 26.594C35.4793 26.0708 35.1784 25.6653 34.629 25.4821C34.3805 25.4037 34.1451 25.3644 33.9096 25.3644C32.9285 25.3644 32.2483 26.0446 31.9213 26.4501C31.8036 26.6071 31.8298 26.8425 31.9867 26.9733L32.0652 27.0257Z" fill="var(--fill-0, #7A7A83)"/>
<path id="Vector_6" d="M60.8429 44.6977L60.1104 43.4158C59.9795 43.1934 59.8226 42.9972 59.6395 42.8141C59.6133 42.7749 59.5871 42.7356 59.5479 42.6964C59.5479 42.6964 59.4825 42.644 59.3778 42.5917C59.2601 42.5002 59.1293 42.4348 58.9985 42.3693L58.6584 42.1731C58.6322 42.1731 58.6192 42.147 58.593 42.147C58.5014 42.1208 46.611 38.1573 44.6881 37.5033C44.1257 37.3071 43.6417 37.2155 43.2362 37.2155C42.8307 37.2155 42.6214 37.3202 42.5167 37.3856C42.2813 37.0716 42.0066 36.7708 41.745 36.483C41.8365 36.313 41.9412 36.156 42.0589 35.999C42.1766 35.829 42.1374 35.5935 41.9673 35.4758C41.9019 35.4235 41.8234 35.4104 41.745 35.4104C41.6272 35.4104 41.5095 35.4627 41.4441 35.5674C41.3656 35.672 41.3002 35.7766 41.2348 35.8813C40.7116 35.2273 40.3061 34.5078 40.293 33.5137C43.6678 26.6332 43.4716 20.8384 38.7495 14.7035C38.9457 14.3765 39.3512 13.9318 39.2073 13.5132C41.2217 11.1456 38.4879 6.94664 37.7161 4.53978C36.9705 1.98903 30.1946 3.96422 23.8766 5.14149C22.8563 4.19968 21.6006 3.49332 20.2271 3.10089C19.7693 1.29575 18.0949 0.00075097 16.2244 0.00075097C11.9339 -0.0777336 10.5343 6.0179 14.3931 7.83613C12.7711 8.59481 11.7769 8.38552 11.2014 9.86365C10.5604 11.3156 10.5081 11.6819 11.1752 13.16C8.57214 15.3445 5.79902 18.0522 3.52297 22.0157C3.20903 23.1406 2.92125 26.2146 3.06514 27.6666L3.0913 27.6404C3.60145 30.2304 4.22933 31.5254 5.61589 31.8393C5.8121 37.6603 7.38179 43.8606 9.91946 48.8443C12.1301 51.8137 12.8757 58.511 12.6141 58.8119V59.0997C13.1112 59.2435 13.9876 59.6229 16.8261 59.6752C18.592 59.7275 20.9204 59.3482 20.8681 58.6418C22.4116 58.7465 25.0539 58.2756 24.9885 57.8177C25.4987 56.7713 24.5045 56.405 23.5758 56.1696C23.3926 55.751 22.9348 54.3906 23.4057 51.866C24.3214 51.3035 25.1716 50.7541 25.9826 50.2047L26.2835 50.3094V57.2683C26.2835 58.511 27.1207 59.6229 28.311 59.9891L40.9209 63.7302C41.1825 63.8087 41.4703 63.848 41.745 63.848H41.758C42.0458 63.848 42.3205 63.8087 42.5952 63.7172L55.4013 59.7537C56.5916 59.3874 57.3896 58.3017 57.3896 57.046V50.6233L59.0116 50.1393C59.4171 49.9954 59.731 49.6946 59.8749 49.2891C60.045 48.8312 59.9926 48.2949 59.731 47.8109L58.2267 45.0771L59.9272 45.7442C60.0057 45.7834 60.0973 45.7965 60.1888 45.7965C60.3981 45.7965 60.5943 45.7049 60.7252 45.548C60.9214 45.3125 60.9606 44.9855 60.8036 44.7239L60.8429 44.6977ZM42.8961 37.9611C42.9222 37.935 43.0269 37.8957 43.2231 37.8957C43.4193 37.8957 43.8248 37.935 44.4396 38.1443C46.1009 38.7067 55.0219 41.6892 56.0422 42.0293L57.5465 42.5263C57.2326 42.6571 56.9317 42.8533 56.6309 43.115L43.0138 38.5367L42.4513 38.3536L42.8699 37.9611H42.8961ZM40.8424 36.5746C40.8293 36.6007 40.8162 36.64 40.8032 36.6661C40.7247 36.8493 40.8032 37.0716 40.9994 37.1632C41.0517 37.1894 41.104 37.1894 41.1563 37.1894C41.2348 37.1894 41.3002 37.1632 41.3656 37.124C41.588 37.3594 41.8104 37.6079 41.9935 37.8565L41.8234 38.0135L41.1825 37.4248C41.1171 37.3594 40.8947 37.2024 40.3976 37.2024C39.9006 37.2024 39.5212 37.3071 38.9457 37.4902C38.7102 37.5687 38.3047 37.6995 37.7946 37.8826C38.5009 36.7708 39.1288 35.7112 39.7305 34.5732C39.8483 35.3711 40.3192 35.999 40.8424 36.5746ZM41.1432 38.3536L41.0648 38.3797C41.0648 38.3536 41.0648 38.3143 41.0778 38.2882L41.1432 38.3536ZM27.5785 42.0293C29.8415 41.2706 33.3602 40.1064 35.9633 39.23C36.5911 39.0207 37.1667 38.8245 37.6507 38.6675C38.344 38.432 38.8672 38.262 39.155 38.1573C39.7698 37.9481 40.1491 37.9088 40.3715 37.9088C40.3192 38.1573 40.2799 38.4059 40.2538 38.6544L38.7233 39.1646L37.6376 39.5308H37.5984L36.3557 39.9494L35.1261 40.3418L29.8938 42.0293L26.8198 43.0234C26.5974 42.8403 26.3751 42.6964 26.1396 42.5917C26.1134 42.5786 26.0742 42.5656 26.048 42.5525C26.2443 42.4871 27.5654 42.0423 27.5654 42.0423L27.5785 42.0293ZM26.8721 41.5322C28.6773 40.1849 29.2136 37.9481 26.4405 35.5281C29.9461 34.0369 34.9953 34.1677 38.2132 35.7636C37.7161 36.6138 37.1929 37.451 36.6304 38.2751C33.8965 39.1907 29.5929 40.6296 26.8721 41.5322ZM39.0242 9.53663C39.7044 11.211 39.3643 13.317 37.6768 14.0103C37.0097 13.9318 36.3818 13.8664 35.7801 13.8271L37.4545 5.58624L39.0242 9.52355V9.53663ZM35.27 3.96422L33.2032 13.801C32.039 13.8533 30.9664 14.0233 29.9461 14.2849L32.3137 4.29124C33.6087 4.09503 34.6552 3.9773 35.27 3.96422ZM20.3317 3.8465C21.3128 4.17352 22.2023 4.6575 22.9871 5.28538C22.2415 5.46851 21.5221 5.63856 20.855 5.80861C20.6195 5.69088 20.371 5.57316 20.0963 5.46851C20.2925 4.94528 20.371 4.39589 20.3317 3.83342V3.8465ZM16.2113 0.680951C19.0891 0.576305 20.7503 4.35665 18.7097 6.39724C17.5455 6.72426 16.4598 7.06436 15.4657 7.39138C11.5938 6.54113 12.2217 0.641708 16.2113 0.66787V0.680951ZM12.5487 9.26193C12.601 9.22269 14.3538 8.50325 15.7796 8.04542C18.0949 7.11669 23.5496 5.86093 28.1802 4.98452L25.9172 16.0116C24.2167 17.045 22.5293 18.4315 20.5934 20.1844C14.4716 21.9634 13.3466 14.8343 11.5938 10.8316C11.2799 10.1253 11.79 9.39274 12.5356 9.26193H12.5487ZM5.58973 30.9498V31.0414C4.98801 30.8452 3.99387 29.7857 3.74534 26.7509C3.67994 24.7496 4.1116 22.4866 4.19009 22.1988C4.84412 21.1 5.56357 20.0536 6.36149 19.0463C7.82654 17.1889 9.64476 15.3183 11.4368 13.8402C12.1955 15.4884 13.2289 19.4257 14.7463 20.5637C11.2929 22.8528 7.69573 26.3585 5.85134 29.6156C5.62897 30.0604 4.93569 30.6621 5.57665 30.9498H5.58973ZM20.7634 57.857C20.528 57.5038 19.9262 57.2814 19.3899 57.1506C19.3245 56.9675 19.1806 56.6666 18.9975 55.9603C18.9321 55.6725 18.7751 54.7176 18.5004 55.2016C18.435 56.1042 18.5004 57.1114 18.8275 57.7654C20.7896 58.1709 20.7242 58.6811 17.6633 58.8642C16.2244 58.995 13.739 58.668 13.3335 58.4979C13.3335 57.7654 13.2812 55.7379 12.6533 53.318C13.2158 53.6711 13.4251 53.9327 13.6606 54.2205C13.8044 54.4037 13.8568 54.5606 14.0007 54.4429C14.1445 54.3252 13.6998 53.4749 13.5036 53.2264C11.2275 50.1916 7.9181 44.5277 6.67543 35.7112C6.41382 33.8538 6.29609 32.0617 6.32225 30.2435C8.1928 26.8817 11.6984 23.7031 14.9294 21.3355L14.8247 21.1916L14.9294 21.3224C15.0994 21.1916 15.2303 21.1 15.348 21.0085C16.8915 22.068 18.9975 22.4343 20.7373 21.6756C26.362 16.6002 29.5537 14.8082 37.2059 15.7238C37.5853 15.593 37.9254 15.4099 38.2262 15.1483C43.1184 21.1523 42.7129 28.1767 38.5794 35.0834C35.113 33.3175 29.5014 33.2259 25.7472 34.9787C24.8839 34.4162 23.8636 33.8538 22.6209 33.5922C20.1879 33.0689 20.4887 30.6621 20.2533 30.6882C20.0047 30.7144 19.9262 31.5516 19.9916 32.0617C20.1617 33.4352 20.9596 33.9584 22.3854 34.3639C24.8315 35.0572 28.5726 37.3463 27.2646 39.9494C25.721 42.3301 21.1951 42.6833 18.9452 40.8651C15.845 38.262 15.5704 33.6968 16.3421 30.5836C16.3944 30.3743 16.5776 30.0603 16.3683 30.0342C16.1459 29.9949 15.5049 31.1461 15.3349 32.3756C14.8509 35.8028 15.5311 38.7983 18.1211 41.2444C15.8581 44.58 12.2871 53.4226 18.4089 53.6188C19.8478 53.6188 20.8681 53.0694 22.5947 52.2192C22.1892 55.3324 22.8825 56.3396 23.1049 56.732C26.362 57.4122 22.6863 57.8962 20.7503 57.8308L20.7634 57.857ZM18.6182 52.9255C13.1112 52.9648 16.8261 44.58 18.7228 41.7153C20.214 42.8272 22.2546 43.0757 24.0728 42.7225L21.6267 44.6716C21.3651 44.8809 21.2736 45.234 21.4044 45.5611C21.5221 45.8488 21.7968 46.0189 22.0977 46.0189C22.3985 46.0189 22.1631 46.0189 22.1892 46.0189C22.2154 46.0189 22.2285 46.0189 22.2546 46.0058L25.3024 45.0771L23.9944 47.4316C23.7327 47.9025 23.6673 48.4388 23.8374 48.8967C23.9813 49.3022 24.2952 49.603 24.6876 49.76L25.1847 49.93C22.9871 51.3689 20.7634 52.4285 18.6182 52.9255ZM26.7152 49.6946L26.4666 49.6161L25.9172 49.433L24.9231 49.1059C24.7138 49.0275 24.5568 48.8705 24.4784 48.6612C24.3868 48.3996 24.426 48.0726 24.583 47.7717L26.532 44.253L26.5713 44.1745L26.7282 43.8998L26.8198 43.926L27.1076 44.0306L27.4608 44.1483L27.8139 44.2661L30.7964 45.2864L31.6074 45.5611L41.2087 48.8574L39.1942 52.4939C38.9326 52.9517 38.4355 53.2656 37.9515 53.2656C37.4676 53.2656 37.703 53.2395 37.5984 53.2002L26.8983 49.7469L26.7021 49.6815L26.7152 49.6946ZM41.4179 63.0893C41.3133 63.0762 41.2217 63.05 41.1302 63.0239L28.5203 59.2828C27.6177 59.0212 26.9899 58.1709 26.9899 57.2422V50.5187L37.376 53.8673C37.5591 53.9327 37.7553 53.972 37.9646 53.972C38.6971 53.972 39.4558 53.5142 39.8221 52.847L41.4179 49.9693V63.1024V63.0893ZM41.8234 48.151L32.2222 44.9593L31.4112 44.6846L28.3372 43.6643L27.9317 43.5335L30.3385 42.7225H30.3647L30.9141 42.5263L31.2019 42.4348L34.3282 41.3883L35.6232 40.9566L37.9123 40.1849L38.7102 39.9232L40.1099 39.4654L40.3192 39.4C40.3192 39.4131 40.3322 39.4262 40.3453 39.4393C40.4107 39.5177 40.5023 39.557 40.6069 39.557C40.8032 39.557 40.9732 39.3869 40.9863 39.1907L41.758 38.9422L41.9935 39.0207L42.7914 39.2823L55.4667 43.4812L55.8853 43.6382L44.8059 47.2092L41.9412 48.0987L41.8104 48.138L41.8234 48.151ZM56.7094 57.0198C56.7094 57.9616 56.1076 58.7726 55.2051 59.0604L42.399 63.0239C42.3074 63.05 42.2028 63.0762 42.1112 63.0893V49.7861L43.8248 52.8863C44.2041 53.5796 44.9759 54.0505 45.7215 54.0505C46.4671 54.0505 46.1009 54.0243 46.2709 53.9589L56.7094 50.8064V57.0198ZM59.1424 48.1118C59.3124 48.4127 59.3517 48.7397 59.247 49.0013C59.1685 49.2106 59.0116 49.3545 58.8154 49.433L46.0747 53.2787H46.0485C45.9439 53.318 45.8392 53.331 45.7215 53.331C45.2244 53.331 44.7143 53.004 44.4527 52.5331L42.3598 48.7397L45.0936 47.8633L56.4477 44.3315L57.2326 44.6454L59.1424 48.1118Z" fill="var(--fill-0, #7A7A83)"/>
<path id="Vector_7" d="M48.9655 25.0242C48.9263 25.1158 48.9263 25.2204 48.9655 25.312C49.1094 25.6652 49.2141 26.0314 49.2795 26.3977C49.3056 26.5808 49.4626 26.6986 49.6457 26.6986C49.8289 26.6986 49.685 26.6986 49.7111 26.6986C49.8158 26.6855 49.8943 26.6201 49.9466 26.5416C49.9989 26.4631 50.0251 26.3585 50.012 26.2669C49.9335 25.8483 49.8158 25.4297 49.6457 25.0242C49.5934 24.8803 49.4495 24.7888 49.3056 24.7888C49.1618 24.7888 49.2141 24.7888 49.1618 24.8149C49.0702 24.8542 48.9917 24.9196 48.9525 25.0111L48.9655 25.0242Z" fill="var(--fill-0, #7A7A83)"/>
<path id="Vector_8" d="M48.39 31.2638C48.4554 31.3161 48.5339 31.3292 48.6124 31.3292C48.7301 31.3292 48.8478 31.2769 48.9132 31.1722C49.1618 30.819 49.3841 30.4528 49.5542 30.0603C49.5934 29.9688 49.5934 29.8641 49.5542 29.7726C49.5149 29.681 49.4495 29.6025 49.358 29.5633C49.3056 29.5371 49.2533 29.524 49.201 29.524C49.0571 29.524 48.9132 29.6156 48.8609 29.7464C48.7039 30.0996 48.5077 30.4266 48.2853 30.7275C48.1676 30.8975 48.2069 31.133 48.3638 31.2507L48.39 31.2638Z" fill="var(--fill-0, #7A7A83)"/>
<path id="Vector_9" d="M44.6096 33.9715C44.6619 33.9715 44.7143 33.9715 44.7535 33.9453L45.8654 33.4613C46.0485 33.3828 46.1401 33.1604 46.0616 32.9642C45.9962 32.8334 45.8654 32.7419 45.7215 32.7419C45.5776 32.7419 45.6168 32.7419 45.5776 32.768L44.4657 33.252C44.2826 33.3305 44.191 33.5529 44.2695 33.7491C44.3349 33.8799 44.4657 33.9715 44.6096 33.9715Z" fill="var(--fill-0, #7A7A83)"/>
<path id="Vector_10" d="M47.8013 31.4862C47.7098 31.4862 47.6182 31.5254 47.5528 31.5777C47.2781 31.8263 46.9642 32.0617 46.6371 32.2579C46.454 32.3626 46.4017 32.598 46.5063 32.7681C46.5717 32.8858 46.7026 32.9512 46.8334 32.9512C46.9642 32.9512 46.9642 32.9381 47.0296 32.8989C47.3958 32.6765 47.749 32.4149 48.063 32.1271C48.1414 32.0617 48.1807 31.9702 48.1807 31.8655C48.1807 31.7609 48.1545 31.6693 48.0891 31.5908C48.0237 31.5123 47.9191 31.4731 47.8144 31.4731L47.8013 31.4862Z" fill="var(--fill-0, #7A7A83)"/>
<path id="Vector_11" d="M49.9597 28.8308C50.0513 28.4122 50.1036 27.9805 50.1167 27.5489C50.1297 27.1172 50.0774 27.3527 50.012 27.2872C49.9466 27.2088 49.855 27.1695 49.7504 27.1695C49.5411 27.1695 49.3711 27.3396 49.3711 27.5358C49.3711 27.9151 49.3187 28.2945 49.2272 28.6607C49.1879 28.8569 49.3057 29.0662 49.5149 29.1055C49.5411 29.1055 49.5673 29.1055 49.5934 29.1055C49.7635 29.1055 49.9205 28.9877 49.9597 28.8177V28.8308Z" fill="var(--fill-0, #7A7A83)"/>
<path id="Vector_12" d="M41.4049 41.4144C41.261 41.0612 41.1563 40.695 41.0779 40.3287C41.0386 40.1456 40.8947 40.0279 40.7116 40.0279C40.5285 40.0279 40.6724 40.0279 40.6462 40.0279C40.45 40.0671 40.3061 40.2633 40.3453 40.4595C40.4238 40.8781 40.5415 41.2967 40.7116 41.7022C40.7639 41.8461 40.9078 41.9376 41.0517 41.9376C41.1956 41.9376 41.1433 41.9376 41.1956 41.9115C41.3918 41.833 41.4834 41.6106 41.4049 41.4275V41.4144Z" fill="var(--fill-0, #7A7A83)"/>
<path id="Vector_13" d="M42.1766 34.8479C42.1766 34.9525 42.2028 35.0441 42.2813 35.1226C42.3467 35.2011 42.4513 35.2403 42.556 35.2403C42.6606 35.2403 42.7391 35.2011 42.8045 35.1356C43.0792 34.874 43.3931 34.6517 43.7202 34.4554C43.9033 34.3508 43.9556 34.1153 43.851 33.9453C43.7856 33.8276 43.6548 33.7622 43.524 33.7622C43.3931 33.7622 43.3931 33.7752 43.3277 33.8145C42.9615 34.0369 42.6083 34.2985 42.2944 34.5863C42.2159 34.6517 42.1766 34.7432 42.1766 34.8479Z" fill="var(--fill-0, #7A7A83)"/>
<path id="Vector_14" d="M42.5298 43.1411C42.3205 42.9187 42.1243 42.6702 41.9412 42.4086C41.8758 42.3039 41.758 42.2385 41.6272 42.2385C41.4964 42.2385 41.4833 42.2647 41.4179 42.3039C41.3395 42.3563 41.2741 42.4478 41.261 42.5394C41.2479 42.644 41.261 42.7356 41.3133 42.8141C41.5095 43.1019 41.7319 43.3766 41.9673 43.6382L42.1243 43.7952C42.1897 43.8736 42.2944 43.9129 42.399 43.9129C42.5036 43.9129 42.5821 43.8736 42.6606 43.8082C42.7391 43.7428 42.7783 43.6513 42.7783 43.5466C42.7783 43.442 42.7391 43.3504 42.6737 43.285L42.5167 43.128L42.5298 43.1411Z" fill="var(--fill-0, #7A7A83)"/>
<path id="Vector_15" d="M48.7301 24.4618C48.8086 24.4618 48.874 24.4356 48.9394 24.3964C49.1095 24.2787 49.1618 24.0432 49.044 23.8732C48.9263 23.7031 48.8086 23.5331 48.6647 23.3761C48.5993 23.2845 48.4816 23.2453 48.3769 23.2453C48.2723 23.2453 48.2069 23.2715 48.1415 23.3369C47.9845 23.4677 47.9583 23.7031 48.0892 23.8601C48.2069 24.004 48.3115 24.1479 48.4162 24.3048C48.4816 24.4095 48.5993 24.4749 48.7301 24.4749V24.4618Z" fill="var(--fill-0, #7A7A83)"/>
</g>
</svg>
