<svg preserveAspectRatio="none" width="100%" height="100%" overflow="visible" style="display: block;" viewBox="0 0 307.089 60.9653" fill="none" xmlns="http://www.w3.org/2000/svg">
<g id="Group">
<path id="Vector" d="M13.5828 1.08052C25.7508 1.08052 26.9814 9.3777 26.9814 15.2846V28.0981C26.9814 34.0969 25.7508 42.3825 13.5828 42.3825H11.9381V59.9537H0.264594V1.06903H13.5828V1.08052ZM15.3079 13.239C15.3079 11.6761 14.9744 10.8602 13.5828 10.8602H11.9381V32.6259H13.5828C14.9744 32.6259 15.3079 31.81 15.3079 30.2471V13.2505V13.239Z" fill="#FFFFFF" stroke="black" stroke-width="0.529187" stroke-miterlimit="10"/>
<path id="Vector_2" d="M29.201 46.4967V14.5491C29.201 8.63073 30.3511 0.264594 42.5997 0.264594C54.8483 0.264594 56.0789 8.64222 56.0789 14.5491V46.4967C56.0789 52.415 54.8483 60.7007 42.5997 60.7007C30.3511 60.7007 29.201 52.4035 29.201 46.4967ZM44.4054 48.4733V12.584C44.4054 11.1015 43.9108 10.1247 42.5997 10.1247C41.3691 10.1247 40.8746 11.113 40.8746 12.584V48.4733C40.8746 49.9557 41.3691 50.9326 42.5997 50.9326C43.9108 50.9326 44.4054 49.9442 44.4054 48.4733Z" fill="#FFFFFF" stroke="black" stroke-width="0.529187" stroke-miterlimit="10"/>
<path id="Vector_3" d="M59.1154 59.9652V1.08052H70.7889V59.9652H59.1154Z" fill="#FFFFFF" stroke="black" stroke-width="0.529187" stroke-miterlimit="10"/>
<path id="Vector_4" d="M74.0664 59.9652V1.08052H84.5093L88.9487 26.4547H89.6042V1.08052H100.783V59.9652H90.3403L85.6594 31.3043H84.9233V59.9652H74.0779H74.0664Z" fill="#FFFFFF" stroke="black" stroke-width="0.529187" stroke-miterlimit="10"/>
<path id="Vector_5" d="M124.292 1.08052V10.8487H119.438V59.9537H107.765V10.8487H103.084V1.08052H124.292Z" fill="#FFFFFF" stroke="black" stroke-width="0.529187" stroke-miterlimit="10"/>
<path id="Vector_6" d="M141.382 59.9652V1.08052H154.367L157.161 25.2251H157.817L160.451 1.08052H173.435V59.9652H163.74V25.3055H163.084L159.876 59.9652H155.022L151.813 25.3055H151.158V59.9652H141.382Z" fill="#FFFFFF" stroke="black" stroke-width="0.529187" stroke-miterlimit="10"/>
<path id="Vector_7" d="M192.826 59.9652L192.412 53.3114H187.731L187.317 59.9652H174.988L182.142 1.08052H198.082L205.236 59.9652H192.826ZM188.306 43.5432H191.837L190.353 19.1573H189.698L188.306 43.5432Z" fill="#FFFFFF" stroke="black" stroke-width="0.529187" stroke-miterlimit="10"/>
<path id="Vector_8" d="M233.505 48.3813C233.505 53.4723 233.746 57.3336 235.311 59.9652H223.143C221.992 57.6668 221.831 52.8977 221.831 48.8755V41.8079C221.831 38.2799 221.417 37.7858 219.945 37.7858H218.462V59.9537H206.788V1.06903H220.842C233.01 1.06903 233.493 7.22871 233.493 13.1356V22.8233C233.493 28.8221 232.424 32.1892 228.973 33.2579V33.913C231.768 35.3035 233.493 37.441 233.493 44.0144V48.3698L233.505 48.3813ZM221.843 13.239C221.843 11.6761 221.509 10.8602 220.118 10.8602H218.473V27.9372H220.118C221.429 27.9372 221.843 27.443 221.843 25.3055V13.239Z" fill="#FFFFFF" stroke="black" stroke-width="0.529187" stroke-miterlimit="10"/>
<path id="Vector_9" d="M264.742 59.9652H252.171L250.032 34.9128H248.468V59.9652H236.794V1.08052H248.468V25.9606H250.032L252.091 1.08052H264.5L260.061 25.4664L259.325 29.569V29.6495C259.658 31.2124 259.819 32.6029 260.141 34.2463L264.742 59.9537V59.9652Z" fill="#FFFFFF" stroke="black" stroke-width="0.529187" stroke-miterlimit="10"/>
<path id="Vector_10" d="M284.385 10.8602H277.979V25.1446H283.408L283.327 34.9128H277.991V50.1856H284.397V59.9537H266.317V1.06903H284.397V10.8372L284.385 10.8602Z" fill="#FFFFFF" stroke="black" stroke-width="0.529187" stroke-miterlimit="10"/>
<path id="Vector_11" d="M306.824 1.08052V10.8487H301.971V59.9537H290.297V10.8487H285.616V1.08052H306.824Z" fill="#FFFFFF" stroke="black" stroke-width="0.529187" stroke-miterlimit="10"/>
</g>
</svg>
